<svg width="100%" height="100%" fill="currentColor" xmlns="http://www.w3.org/2000/svg" viewBox="0 0 12 12"><path d="M10.08 0H0v10.08a1.92 1.92 0 0 0 .562 1.358A1.92 1.92 0 0 0 1.92 12h8.16A1.92 1.92 0 0 0 12 10.08V1.92A1.92 1.92 0 0 0 10.08 0zM.858 9.628c-.012 1.038.606 1.603 1.608 1.604h0c1.098.014 1.743-.752 1.665-1.845h-1.15c.009.214-.008.511-.121.645-.08.113-.198.169-.354.169-.332-.005-.499-.247-.499-.725v-2.28c0-.252.036-.443.109-.572.118-.238.563-.264.732-.036.13.126.141.46.133.681h1.15c.03-.562-.096-1.164-.43-1.458-.542-.574-1.827-.541-2.38-.008-.308.274-.462.674-.462 1.201v2.627zm3.683-.241c-.031 1.071.466 1.861 1.576 1.845h0c1.54.065 1.97-1.64 1.343-2.756-.21-.366-.79-.669-1.246-.846-.352-.162-.503-.321-.507-.709 0-.365.153-.548.458-.548.171 0 .288.056.35.169.088.133.109.499.1.725h1.046c.025-.551-.106-1.15-.406-1.454-.487-.59-1.757-.564-2.244.012-.501.467-.534 1.619-.177 2.143.158.237.417.441.776.612l.166.079c.256.119.588.274.695.445.19.219.165.787.032.983-.07.108-.19.161-.362.161-.384.03-.545-.396-.515-.862H4.54zm3.506 0c-.031 1.071.466 1.861 1.576 1.845h0c1.54.065 1.97-1.64 1.343-2.756-.21-.366-.79-.669-1.246-.846-.352-.162-.503-.321-.507-.709 0-.365.153-.548.458-.548.171 0 .288.056.35.169.088.133.109.499.1.725h1.046c.025-.551-.106-1.15-.406-1.454-.487-.59-1.757-.564-2.244.012-.501.467-.534 1.619-.177 2.143.158.237.417.441.776.612l.166.079c.256.119.588.274.695.445.189.219.165.787.032.983-.07.108-.19.161-.362.161-.384.03-.545-.396-.515-.862H8.046z" fill-rule="evenodd"/></svg>
