<svg width="100%" height="100%" fill="currentColor" xmlns="http://www.w3.org/2000/svg" viewBox="0 0 13.5 12.135"><path d="M6.748,7.213c.632,0,1.144-.512,1.144-1.144s-.512-1.144-1.144-1.144-1.144.512-1.144,1.144.512,1.144,1.144,1.144Z"/><path d="M4.125 10.614c-.017-.01-.106-.07-.163-.347s-.058-.678.029-1.198l.043-.232 1.034.145.642.822-.18.154c-.407.335-.756.535-1.023.624s-.365.042-.382.032zm-.74-4.546L2.994 5.1l-.223.079c-.494.185-.841.387-1.052.574s-.219.295-.219.315.008.127.219.315.558.389 1.052.574l.223.079.391-.968zM2.244 3.774l.332-.116-.065-.346c-.104-.624-.125-1.225-.019-1.745S2.853.523 3.375.222 4.48-.037 4.981.13s1.013.487 1.502.888l.267.23.267-.23C7.505.616 8.016.297 8.519.13s1.085-.21 1.606.092.776.827.882 1.345.085 1.121-.018 1.745l-.065.346.332.116c.592.222 1.123.505 1.52.856s.724.835.724 1.437-.328 1.086-.724 1.437-.928.634-1.52.856l-.332.116.065.346c.104.624.125 1.225.018 1.745s-.361 1.044-.882 1.345-1.105.259-1.606.091-1.013-.486-1.502-.888l-.267-.23-.267.23c-.488.402-.999.721-1.502.888s-1.085.21-1.606-.091-.776-.827-.883-1.345-.085-1.121.019-1.745l.065-.346-.332-.117c-.592-.222-1.123-.504-1.52-.856S0 6.668 0 6.066.328 4.98.724 4.629s.928-.634 1.52-.856zM7.97 9.958l-.18-.154.642-.823 1.034-.145.043.232c.086.52.085.922.029 1.198s-.146.337-.163.347-.114.057-.382-.032-.616-.289-1.023-.624zM5.067 3.153l.642-.823-.18-.153c-.407-.335-.756-.535-1.023-.624s-.365-.042-.382-.032-.106.07-.163.347-.058.678.029 1.198l.043.232 1.034-.145zM7.79 2.33l.642.823 1.034.145.043-.232c.086-.52.085-.922.029-1.198s-.146-.337-.163-.347-.114-.057-.382.032-.616.289-1.023.624l-.18.153zm2.326 3.738l.391.968.223-.079c.494-.185.841-.387 1.052-.574s.219-.295.219-.315-.008-.127-.219-.315-.558-.389-1.052-.574l-.223-.079-.391.968zM6.748 8.213c1.184 0 2.144-.96 2.144-2.145s-.96-2.144-2.144-2.144-2.144.96-2.144 2.144.96 2.145 2.144 2.145z"/></svg>
