<svg width="100%" height="100%" fill="currentColor" xmlns="http://www.w3.org/2000/svg" viewBox="0 0 12.449 11.11"><path d="M12.285 4.943l-2.5-4.33A1.23 1.23 0 0 0 8.724 0h-5a1.23 1.23 0 0 0-1.061.613l-2.5 4.33a1.23 1.23 0 0 0 0 1.224l2.5 4.331a1.23 1.23 0 0 0 1.061.611h5c.437 0 .843-.234 1.061-.612l2.5-4.33c.219-.378.219-.848 0-1.225zm-1.038.623L8.726 9.91l-5.022-.013-2.502-4.355L3.724 1.2l5.021.012 2.501 4.332c.004.007.004.016 0 .022zM6.474 2.7a.5.5 0 0 0-.5 0L3.876 3.911a.5.5 0 0 0-.25.433v2.423a.5.5 0 0 0 .25.433l2.098 1.211a.5.5 0 0 0 .5 0L8.572 7.2a.5.5 0 0 0 .25-.433V4.344a.5.5 0 0 0-.25-.433L6.474 2.7z"/></svg>
