<svg width="100%" height="100%" fill="currentColor" xmlns="http://www.w3.org/2000/svg" viewBox="0 0 12.411 11.2"><path d="M3.975 1.2a.6.6 0 0 0 .6-.6.6.6 0 0 0-.6-.6C1.5 0 1.5 2.172 1.5 3.1c0 .852-.447 1.604-1.168 1.963a.6.6 0 0 0 0 1.074C1.063 6.504 1.5 7.237 1.5 8.1c0 .928 0 3.1 2.475 3.1a.6.6 0 0 0 0-1.2C2.826 10 2.7 9.392 2.7 8.1c0-.977-.392-1.873-1.061-2.5C2.308 4.974 2.7 4.078 2.7 3.1c0-1.292.125-1.9 1.275-1.9zm8.104 3.863c-.72-.359-1.168-1.111-1.168-1.963 0-.928 0-3.1-2.475-3.1a.6.6 0 1 0 0 1.2c1.149 0 1.275.608 1.275 1.9 0 .978.391 1.875 1.061 2.5-.669.627-1.061 1.523-1.061 2.5 0 1.292-.126 1.9-1.275 1.9a.6.6 0 0 0 0 1.2c2.475 0 2.475-2.172 2.475-3.1 0-.863.438-1.597 1.169-1.963a.6.6 0 0 0-.001-1.074z"/></svg>
