<svg width="100%" height="100%" fill="currentColor" xmlns="http://www.w3.org/2000/svg" viewBox="0 0 512 512">
  <path d="M326.612 185.391c59.747 59.809 58.927 155.698.36 214.59-.11.12-.24.25-.36.37l-67.2 67.2c-59.27 59.27-155.6 59.26-214.85-.02-59.27-59.26-59.28-155.58-.02-214.85l18.4-18.4c6.246-6.246 16.379-6.247 22.624-.001l22.628 22.628c6.245 6.245 6.249 16.379.01 22.627l-18.4 18.4c-34.22 34.22-34.22 89.74 0 123.97 34.22 34.22 89.74 34.22 123.97 0l67.2-67.2c34.09-34.09 34.56-88.75.9-123.14l-6-6c-6.246-6.246-6.245-16.379.002-22.625l22.63-22.63c6.245-6.245 16.379-6.246 22.625-.001l6 6.01zM489.242 22.782c-59.27-59.27-155.6-59.26-214.85-.02l-67.2 67.2c-59.747 59.809-58.927 155.698-.36 214.59.11.12.24.25.36.37l6 6c6.246 6.246 16.379 6.247 22.625.001l22.63-22.63c6.245-6.245 6.249-16.379.01-22.627l-6-6.01c-33.66-34.39-33.19-89.05.9-123.14l67.2-67.2c34.22-34.22 89.74-34.22 123.97 0 34.22 34.22 34.22 89.74 0 123.97l-18.4 18.4c-6.245 6.245-6.249 16.379-.01 22.627l22.628 22.628c6.246 6.246 16.379 6.245 22.625-.001l18.4-18.4c59.27-59.26 59.28-155.58.02-214.85z"/>
</svg>
