<svg width="100%" height="100%" fill="currentColor" xmlns="http://www.w3.org/2000/svg" viewBox="0 0 11.2 12.381"><path d="M10.1.806h-3c-.648 0-1.221.301-1.607.764A2.61 2.61 0 0 0 4.422.88L1.948.056a1.1 1.1 0 0 0-.991.152C.749.358.604.576.54.819.238.851 0 1.097 0 1.407v8.837c0 .233.072.456.21.647l.754 1.037c.207.284.539.453.89.453h7.491a1.1 1.1 0 0 0 .89-.452l.755-1.038c.138-.188.21-.413.21-.647V1.906a1.1 1.1 0 0 0-1.1-1.1zm-3.9 2.1a.9.9 0 0 1 .9-.9H10v7.81c-1.874.049-3.058.213-3.8.441V2.906zM1.7 1.239l2.342.781A1.4 1.4 0 0 1 5 3.348v6.636L1.7 8.517V1.239z"/></svg>
