<svg width="100%" height="100%" fill="currentColor" xmlns="http://www.w3.org/2000/svg" viewBox="0 0 12 12"><path d="M2 0a2 2 0 0 0-2 2v8a2 2 0 0 0 2 2h8a2 2 0 0 0 2-2V2a2 2 0 0 0-2-2H2zm3.269 4.806H4.048v4.075c0 .186-.028.343-.083.471s-.136.225-.243.291-.233.097-.385.097a.79.79 0 0 1-.377-.086c-.105-.059-.187-.143-.248-.251a.88.88 0 0 1-.094-.397h-1.23c-.002.388.081.711.248.967s.394.445.679.571.607.186.959.186c.396 0 .743-.075 1.042-.225a1.67 1.67 0 0 0 .699-.642c.169-.278.254-.605.254-.982V4.806zM9.167 5.95a.72.72 0 0 1 .294.536h1.184a1.64 1.64 0 0 0-.28-.919 1.8 1.8 0 0 0-.759-.619c-.323-.148-.702-.223-1.136-.223-.426 0-.807.074-1.141.223s-.598.355-.79.619-.284.574-.282.927c-.002.432.14.775.425 1.03s.674.442 1.167.562l.636.16c.213.051.393.108.539.171s.261.139.337.228.117.2.117.331a.59.59 0 0 1-.128.374.84.84 0 0 1-.362.254c-.154.061-.336.091-.545.091s-.404-.032-.574-.097a.94.94 0 0 1-.402-.294c-.099-.131-.155-.295-.168-.491H6.103c.01.421.111.773.305 1.059s.468.497.816.642.761.217 1.233.217.882-.071 1.219-.214.597-.347.776-.608.272-.573.274-.93c-.002-.244-.047-.459-.134-.648a1.47 1.47 0 0 0-.362-.491c-.156-.139-.34-.256-.554-.351s-.447-.171-.702-.228l-.525-.126a3.18 3.18 0 0 1-.36-.103 1.52 1.52 0 0 1-.297-.146.69.69 0 0 1-.203-.203c-.048-.078-.069-.169-.066-.274a.56.56 0 0 1 .108-.337c.074-.099.181-.176.32-.231s.309-.086.511-.086c.297 0 .532.064.705.191z" fill-rule="evenodd"/></svg>
