<svg width="100%" height="100%" fill="currentColor" xmlns="http://www.w3.org/2000/svg" viewBox="0 0 12 12"><path d="M2 0a2 2 0 0 0-2 2v8a2 2 0 0 0 2 2h8a2 2 0 0 0 2-2V2a2 2 0 0 0-2-2H2zm7.51 6.67c-.022-.218-.115-.388-.279-.509s-.387-.181-.669-.181c-.191 0-.353.027-.484.081s-.233.125-.303.219-.103.2-.103.319c-.004.099.017.186.062.26a.65.65 0 0 0 .192.192 1.48 1.48 0 0 0 .282.138 2.91 2.91 0 0 0 .341.097l.498.119c.242.054.464.126.666.217a2.01 2.01 0 0 1 .525.333 1.38 1.38 0 0 1 .344.466c.083.179.125.384.127.615-.002.339-.089.633-.26.882a1.66 1.66 0 0 1-.736.577c-.319.135-.705.203-1.156.203s-.837-.069-1.169-.206-.588-.34-.774-.609-.281-.605-.29-1.004h1.134c.013.186.066.341.16.466s.223.216.382.279.342.092.544.092.371-.029.517-.087.263-.138.344-.241a.56.56 0 0 0 .122-.355c0-.124-.037-.229-.111-.314s-.179-.157-.319-.217-.309-.114-.512-.163l-.604-.152c-.467-.114-.836-.291-1.107-.533s-.405-.568-.403-.977c-.002-.336.088-.629.268-.88s.432-.447.75-.587.679-.211 1.083-.211c.411 0 .771.07 1.077.211s.549.337.72.587.26.541.265.872H9.511zM1.2 6.042v-.966h4.553v.966H4.056v4.578H2.897V6.042H1.2z" fill-rule="evenodd"/></svg>
